<svg>
    <symbol id="icon-dropdown" xmlns="http://www.w3.org/2000/svg" width="14" height="9" viewBox="0 0 14 9" fill="none">
        <path d="M12.3552 1.03308L6.67761 6.7107L0.999999 1.03308" stroke="black" stroke-width="2"/>
    </symbol>
    <symbol id="icon-avatar" width="50" height="50" viewBox="0 0 50 50" fill="none" xmlns="http://www.w3.org/2000/svg">
        <circle id="Ellipse 376" cx="25" cy="25" r="25" fill="#D9D9D9"/>    
    </symbol>
    <symbol id="icon-union" width="212" height="181" viewBox="0 0 212 181" fill="none" xmlns="http://www.w3.org/2000/svg">
        <mask id="path-1-outside-1_26_1246" maskUnits="userSpaceOnUse" x="-19.5068" y="-12.6384" width="249.982" height="206.848" fill="black">
        <rect fill="white" x="-19.5068" y="-12.6384" width="249.982" height="206.848"/>
        <path fill-rule="evenodd" clip-rule="evenodd" d="M170.681 156.415C173.51 145.857 185.242 140.188 194.912 135.095C201.325 131.717 206.365 125.777 208.389 118.223C210.413 110.67 209.018 103.005 205.153 96.8735C199.325 87.6274 192 76.8517 194.828 66.2946L195.523 63.7008C199.316 49.546 190.916 34.9965 176.761 31.2038C162.653 27.4235 148.153 35.756 144.302 49.8264C148.002 35.7156 139.611 21.249 125.503 17.4687C111.348 13.6759 96.7984 22.0761 93.0056 36.2309L87.2117 57.8538C87.2116 57.8544 87.211 57.8548 87.2104 57.8546V57.8546C87.2098 57.8545 87.2094 57.8539 87.2096 57.8533L93.0032 36.2314C96.796 22.0765 88.3958 7.52709 74.241 3.73431C60.0861 -0.0584759 45.5367 8.34168 41.7439 22.4965L41.0469 25.0977C38.219 35.6517 26.493 41.3207 16.8263 46.4137C10.4144 49.7919 5.37559 55.7313 3.35192 63.2838C1.32823 70.8363 2.72232 78.4994 6.58608 84.6309C12.4111 93.8749 19.7316 104.647 16.9037 115.201L16.2056 117.807C12.4128 131.962 20.8129 146.511 34.9678 150.304C49.1226 154.097 63.6721 145.696 67.4649 131.542L73.2595 109.916C73.2597 109.915 73.2603 109.915 73.2609 109.915V109.915C73.2615 109.915 73.2618 109.916 73.2617 109.916L67.4673 131.541C63.6745 145.696 72.0746 160.245 86.2295 164.038C100.338 167.819 114.838 159.486 118.689 145.416C114.988 159.526 123.38 173.993 137.488 177.773C151.643 181.566 166.192 173.166 169.985 159.011L170.681 156.415Z"/>
        </mask>
        <path fill-rule="evenodd" clip-rule="evenodd" d="M170.681 156.415C173.51 145.857 185.242 140.188 194.912 135.095C201.325 131.717 206.365 125.777 208.389 118.223C210.413 110.67 209.018 103.005 205.153 96.8735C199.325 87.6274 192 76.8517 194.828 66.2946L195.523 63.7008C199.316 49.546 190.916 34.9965 176.761 31.2038C162.653 27.4235 148.153 35.756 144.302 49.8264C148.002 35.7156 139.611 21.249 125.503 17.4687C111.348 13.6759 96.7984 22.0761 93.0056 36.2309L87.2117 57.8538C87.2116 57.8544 87.211 57.8548 87.2104 57.8546V57.8546C87.2098 57.8545 87.2094 57.8539 87.2096 57.8533L93.0032 36.2314C96.796 22.0765 88.3958 7.52709 74.241 3.73431C60.0861 -0.0584759 45.5367 8.34168 41.7439 22.4965L41.0469 25.0977C38.219 35.6517 26.493 41.3207 16.8263 46.4137C10.4144 49.7919 5.37559 55.7313 3.35192 63.2838C1.32823 70.8363 2.72232 78.4994 6.58608 84.6309C12.4111 93.8749 19.7316 104.647 16.9037 115.201L16.2056 117.807C12.4128 131.962 20.8129 146.511 34.9678 150.304C49.1226 154.097 63.6721 145.696 67.4649 131.542L73.2595 109.916C73.2597 109.915 73.2603 109.915 73.2609 109.915V109.915C73.2615 109.915 73.2618 109.916 73.2617 109.916L67.4673 131.541C63.6745 145.696 72.0746 160.245 86.2295 164.038C100.338 167.819 114.838 159.486 118.689 145.416C114.988 159.526 123.38 173.993 137.488 177.773C151.643 181.566 166.192 173.166 169.985 159.011L170.681 156.415Z" fill="#271A58"/>
        <path d="M195.523 63.7008L193.591 63.1832L195.523 63.7008ZM144.302 49.8264L142.367 49.3191L146.231 50.3544L144.302 49.8264ZM67.4649 131.542L69.3967 132.059L67.4649 131.542ZM118.689 145.416L120.623 145.923L116.76 144.888L118.689 145.416ZM6.58608 84.6309L4.89401 85.6972L6.58608 84.6309ZM194.828 66.2946L196.76 66.8122L194.828 66.2946ZM16.8263 46.4137L15.8941 44.6443L16.8263 46.4137ZM73.2595 109.916L71.3277 109.398L73.2595 109.916ZM194.912 135.095L193.98 133.325L194.912 135.095ZM206.457 117.706C204.583 124.699 199.921 130.196 193.98 133.325L195.844 136.864C202.73 133.238 208.147 126.855 210.321 118.741L206.457 117.706ZM203.461 97.9399C207.042 103.62 208.331 110.713 206.457 117.706L210.321 118.741C212.495 110.627 210.995 102.391 206.845 95.807L203.461 97.9399ZM193.591 63.1832L192.896 65.7769L196.76 66.8122L197.455 64.2185L193.591 63.1832ZM176.243 33.1356C189.331 36.6425 197.098 50.0953 193.591 63.1832L197.455 64.2185C201.534 48.9967 192.501 33.3506 177.279 29.2719L176.243 33.1356ZM146.231 50.3544C149.791 37.3447 163.199 29.6403 176.243 33.1356L177.279 29.2719C162.107 25.2066 146.514 34.1672 142.373 49.2985L146.231 50.3544ZM124.985 19.4005C138.03 22.8959 145.789 36.2721 142.367 49.3191L146.236 50.3338C150.216 35.1591 141.192 19.6021 126.02 15.5368L124.985 19.4005ZM94.9374 36.7486C98.4443 23.6606 111.897 15.8936 124.985 19.4005L126.02 15.5368C110.799 11.4582 95.1524 20.4915 91.0737 35.7133L94.9374 36.7486ZM89.1436 58.3715L94.9374 36.7486L91.0737 35.7133L85.2799 57.3362L89.1436 58.3715ZM91.0713 35.7138L85.2778 57.3356L89.1415 58.3709L94.935 36.749L91.0713 35.7138ZM73.7233 5.66616C86.8113 9.17306 94.5782 22.6258 91.0713 35.7138L94.935 36.749C99.0137 21.5272 89.9804 5.88112 74.7586 1.80246L73.7233 5.66616ZM43.6757 23.0142C47.1826 9.92624 60.6354 2.15926 73.7233 5.66616L74.7586 1.80246C59.5368 -2.27621 43.8907 6.75711 39.812 21.9789L43.6757 23.0142ZM42.9787 25.6153L43.6757 23.0142L39.812 21.9789L39.115 24.5801L42.9787 25.6153ZM5.28377 63.8014C7.15726 56.8094 11.8191 51.3125 17.7586 48.1832L15.8941 44.6443C9.00982 48.2714 3.59392 54.6532 1.42006 62.7661L5.28377 63.8014ZM8.27816 83.5647C4.69904 77.8848 3.41027 70.7934 5.28377 63.8014L1.42006 62.7661C-0.7538 70.8791 0.745595 79.1139 4.89401 85.6972L8.27816 83.5647ZM18.1374 118.324L18.8355 115.719L14.9718 114.684L14.2737 117.289L18.1374 118.324ZM35.4854 148.372C22.3975 144.865 14.6305 131.412 18.1374 118.324L14.2737 117.289C10.1951 132.511 19.2284 148.157 34.4501 152.236L35.4854 148.372ZM65.533 131.024C62.0261 144.112 48.5734 151.879 35.4854 148.372L34.4501 152.236C49.6719 156.314 65.3181 147.281 69.3967 132.059L65.533 131.024ZM71.3277 109.398L65.533 131.024L69.3967 132.059L75.1914 110.433L71.3277 109.398ZM69.3991 132.059L75.1935 110.434L71.3298 109.399L65.5354 131.023L69.3991 132.059ZM86.7471 162.106C73.6592 158.599 65.8922 145.147 69.3991 132.059L65.5354 131.023C61.4568 146.245 70.4901 161.891 85.7119 165.97L86.7471 162.106ZM116.76 144.888C113.199 157.897 99.7919 165.602 86.7471 162.106L85.7119 165.97C100.884 170.035 116.477 161.075 120.618 145.943L116.76 144.888ZM138.006 175.841C124.961 172.346 117.202 158.97 120.623 145.923L116.754 144.908C112.775 160.083 121.798 175.64 136.97 179.705L138.006 175.841ZM168.053 158.493C164.546 171.581 151.094 179.348 138.006 175.841L136.97 179.705C152.192 183.784 167.838 174.75 171.917 159.529L168.053 158.493ZM168.749 155.897L168.053 158.493L171.917 159.529L172.613 156.932L168.749 155.897ZM4.89401 85.6972C7.84503 90.3803 11.0233 95.2244 13.1502 100.21C15.2675 105.173 16.2228 110.015 14.9718 114.684L18.8355 115.719C20.4125 109.834 19.1215 104.013 16.8293 98.6401C14.5467 93.2897 11.1522 88.1256 8.27816 83.5647L4.89401 85.6972ZM72.7433 111.847C71.6769 111.561 71.0441 110.465 71.3298 109.399L75.1935 110.434C75.4796 109.366 74.8461 108.269 73.7785 107.983L72.7433 111.847ZM87.728 55.9228C88.7941 56.2084 89.4273 57.3043 89.1415 58.3709L85.2778 57.3356C84.9916 58.4035 85.6255 59.5005 86.6927 59.7865L87.728 55.9228ZM206.845 95.807C203.893 91.1228 200.712 86.2774 198.584 81.2906C196.465 76.3261 195.509 71.4824 196.76 66.8122L192.896 65.7769C191.319 71.6639 192.611 77.4866 194.905 82.8608C197.189 88.2126 200.586 93.3781 203.461 97.9399L206.845 95.807ZM39.115 24.5801C37.8641 29.2488 34.6156 32.9647 30.3004 36.2041C25.9658 39.4581 20.7913 42.0641 15.8941 44.6443L17.7586 48.1832C22.528 45.6703 28.0498 42.8953 32.7019 39.403C37.3733 35.8961 41.4018 31.5005 42.9787 25.6153L39.115 24.5801ZM75.1914 110.433C74.9057 111.5 73.8096 112.132 72.7433 111.847L73.7785 107.983C72.711 107.697 71.6137 108.33 71.3277 109.398L75.1914 110.433ZM85.2799 57.3362C85.5656 56.2699 86.6617 55.637 87.728 55.9228L86.6927 59.7865C87.7603 60.0725 88.8576 59.439 89.1436 58.3715L85.2799 57.3362ZM193.98 133.325C189.209 135.838 183.684 138.614 179.03 142.106C174.357 145.614 170.326 150.01 168.749 155.897L172.613 156.932C173.864 152.262 177.114 148.545 181.431 145.306C185.768 142.051 190.945 139.445 195.844 136.864L193.98 133.325Z" fill="#FF8071" mask="url(#path-1-outside-1_26_1246)"/>
    </symbol>
    <symbol id="icon-logo" xmlns="http://www.w3.org/2000/svg" width="223" height="36" viewBox="0 0 223 36" fill="none">
        <path d="M39.4001 12.012C39.4001 14.784 40.8281 16.436 42.6761 17.752L45.0561 19.46C46.3161 20.356 47.2401 21.392 47.2401 22.96C47.2401 24.36 46.3161 25.2 44.8601 25.2C43.4321 25.2 42.4801 24.164 42.4801 22.484V21H39.1201V22.68C39.1201 26.292 41.6961 28.28 44.8601 28.28C48.0241 28.28 50.6001 26.376 50.6001 22.54C50.6001 19.852 49.1161 18.2 47.2961 16.884L44.8321 15.12C43.6561 14.28 42.7601 13.412 42.7601 12.012C42.7601 10.584 43.6001 9.79997 44.8321 9.79997C46.1481 9.79997 46.9601 10.612 46.9601 12.404V13.72H50.3201V12.32C50.3201 8.53997 47.8841 6.71997 44.8321 6.71997C41.8361 6.71997 39.4001 8.23197 39.4001 12.012Z" fill="black"/>
        <path d="M57.47 6.99997H54.11V28H57.47V20.636L63.49 28H67.69L61.166 20.356L67.326 14H62.902L57.47 20.104V6.99997Z" fill="black"/>
        <path d="M77.138 29.456L82.43 14H79.07L75.542 24.78L72.042 14H68.682L73.946 29.428C73.134 31.388 72.154 32.312 70.586 32.312C69.914 32.312 69.27 32.172 68.738 32.004V34.972C69.27 35.14 70.082 35.28 70.894 35.28C74.45 35.28 75.962 32.9 77.138 29.456Z" fill="black"/>
        <path d="M89.4493 28V19.32H94.8813V16.24H89.4493V10.08H95.7213V6.99997H86.0893V28H89.4493Z" fill="black"/>
        <path d="M100.47 11.2C101.702 11.2 102.57 10.276 102.57 9.09997C102.57 7.89597 101.702 6.99997 100.47 6.99997C99.266 6.99997 98.37 7.89597 98.37 9.09997C98.37 10.276 99.266 11.2 100.47 11.2ZM102.15 28V14H98.79V28H102.15Z" fill="black"/>
        <path d="M110.823 23.212V16.94H114.463V14H110.823V9.79997H107.463V14H105.223V16.94H107.463V23.436C107.463 27.188 109.479 28.28 112.251 28.28C113.063 28.28 113.959 28.112 114.463 27.944V24.948C113.987 25.116 113.399 25.2 112.923 25.2C111.467 25.2 110.823 24.584 110.823 23.212Z" fill="black"/>
        <path d="M127.334 20.3V28H130.694V19.628C130.694 15.68 128.454 13.72 125.486 13.72C123.75 13.72 122.322 14.532 121.454 16.016V14H118.094V28H121.454V20.3C121.454 17.948 122.574 16.66 124.394 16.66C126.214 16.66 127.334 17.948 127.334 20.3Z" fill="black"/>
        <path d="M147.884 22.12C147.912 21.756 147.94 21.392 147.94 21C147.94 16.716 145 13.72 140.996 13.72C136.992 13.72 134.052 16.716 134.052 21C134.052 25.284 136.992 28.28 140.996 28.28C144.3 28.28 146.736 26.712 147.576 23.8H143.936C143.488 24.78 142.62 25.34 141.136 25.34C139.064 25.34 137.72 24.164 137.356 22.12H147.884ZM140.996 16.66C142.956 16.66 144.244 17.78 144.608 19.74H137.384C137.748 17.78 139.036 16.66 140.996 16.66Z" fill="black"/>
        <path d="M162.484 23.968C162.484 18.2 154.252 20.496 154.252 17.808C154.252 16.912 155.092 16.38 156.352 16.38C157.724 16.38 158.732 17.276 158.732 18.452H162.232C162.232 15.792 159.712 13.72 156.352 13.72C153.244 13.72 150.864 15.344 150.864 17.948C150.864 23.66 159.012 21.14 159.012 24.108C159.012 25.144 158.172 25.648 156.772 25.648C155.26 25.648 154.112 24.892 154.112 23.38H150.612C150.612 26.488 153.272 28.28 156.772 28.28C160.048 28.28 162.484 26.628 162.484 23.968Z" fill="black"/>
        <path d="M177.153 23.968C177.153 18.2 168.921 20.496 168.921 17.808C168.921 16.912 169.761 16.38 171.021 16.38C172.393 16.38 173.401 17.276 173.401 18.452H176.901C176.901 15.792 174.381 13.72 171.021 13.72C167.913 13.72 165.533 15.344 165.533 17.948C165.533 23.66 173.681 21.14 173.681 24.108C173.681 25.144 172.841 25.648 171.441 25.648C169.929 25.648 168.781 24.892 168.781 23.38H165.281C165.281 26.488 167.941 28.28 171.441 28.28C174.717 28.28 177.153 26.628 177.153 23.968Z" fill="black"/>
        <path d="M185.151 28V20.16H187.923C191.367 20.16 193.831 18.032 193.831 14.14V12.74C193.831 8.98797 191.367 6.99997 187.923 6.99997H181.791V28H185.151ZM187.643 10.08C189.379 10.08 190.471 10.892 190.471 13.02V13.86C190.471 16.156 189.379 17.08 187.643 17.08H185.151V10.08H187.643Z" fill="black"/>
        <path d="M200.558 14H197.198V28H200.558V20.86C200.558 18.508 202.014 17.22 204.506 17.22C205.066 17.22 205.57 17.304 205.962 17.444V13.776C205.794 13.72 205.514 13.72 205.262 13.72C203.218 13.72 201.566 14.616 200.558 16.268V14Z" fill="black"/>
        <path d="M214.938 28.28C219.026 28.28 222.078 25.284 222.078 21C222.078 16.716 219.026 13.72 214.938 13.72C210.85 13.72 207.798 16.716 207.798 21C207.798 25.284 210.85 28.28 214.938 28.28ZM214.938 25.2C212.782 25.2 211.158 23.52 211.158 21C211.158 18.48 212.782 16.8 214.938 16.8C217.094 16.8 218.718 18.48 218.718 21C218.718 23.52 217.094 25.2 214.938 25.2Z" fill="black"/>
        <path d="M3.68844 28.4581C1.54195 29.698 0 28.6648 0 26.827C0 24.8705 0 19.0003 0 19.0003C0 19.0003 0 13.1301 0 11.1737C0 9.33591 1.54099 8.30269 3.68844 9.54255C7.03156 11.4731 17.06 17.2668 17.06 17.2668C18.3934 18.037 18.3934 19.9628 17.06 20.7329C17.06 20.7338 7.03156 26.5275 3.68844 28.4581Z" fill="#00C1FF"/>
        <path d="M14.7265 28.4574C12.58 29.6972 11.0381 28.664 11.0381 26.8262C11.0381 24.8698 11.0381 18.9996 11.0381 18.9996C11.0381 18.9996 11.0381 13.1294 11.0381 11.173C11.0381 9.33518 12.5791 8.30196 14.7265 9.54182C17.996 11.4303 27.8044 17.0968 27.8044 17.0968C29.2689 17.9425 29.2689 20.0567 27.8044 20.9024C27.8034 20.9024 17.996 26.5689 14.7265 28.4574Z" fill="#BCEC30"/>
        <mask id="mask0_26_1517" style="mask-type:alpha" maskUnits="userSpaceOnUse" x="11" y="9" width="18" height="20">
        <path d="M14.7265 28.4574C12.58 29.6972 11.0381 28.664 11.0381 26.8262C11.0381 24.8698 11.0381 18.9996 11.0381 18.9996C11.0381 18.9996 11.0381 13.1294 11.0381 11.173C11.0381 9.33518 12.5791 8.30196 14.7265 9.54182C17.996 11.4303 27.8044 17.0968 27.8044 17.0968C29.2689 17.9425 29.2689 20.0567 27.8044 20.9024C27.8035 20.9024 17.996 26.5689 14.7265 28.4574Z" fill="#6FE4FF"/>
        </mask>
        <g mask="url(#mask0_26_1517)">
        <g filter="url(#filter0_f_26_1517)">
            <path d="M3.68893 28.4585C1.54244 29.6983 0.000488281 28.6651 0.000488281 26.8273C0.000488281 24.8709 0.000488281 19.0007 0.000488281 19.0007C0.000488281 19.0007 0.000488281 13.1305 0.000488281 11.1741C0.000488281 9.33628 1.54148 8.30306 3.68893 9.54292C7.03205 11.4735 17.0605 17.2672 17.0605 17.2672C18.3939 18.0373 18.3939 19.9631 17.0605 20.7333C17.0605 20.7342 7.03205 26.5279 3.68893 28.4585Z" fill="#99D100"/>
        </g>
        </g>
        <defs>
        <filter id="filter0_f_26_1517" x="-1.46075" y="7.53986" width="20.9825" height="22.9216" filterUnits="userSpaceOnUse" color-interpolation-filters="sRGB">
            <feFlood flood-opacity="0" result="BackgroundImageFix"/>
            <feBlend mode="normal" in="SourceGraphic" in2="BackgroundImageFix" result="shape"/>
            <feGaussianBlur stdDeviation="0.730621" result="effect1_foregroundBlur_26_1517"/>
        </filter>
        </defs>
    </symbol>
</svg>